<svg width="71" height="54" viewBox="0 0 71 54" fill="none" xmlns="http://www.w3.org/2000/svg">
<g filter="url(#filter0_d_1_823)">
<path d="M8.7569 38.7352C9.00058 39.0114 9.13038 39.3572 9.12358 39.7122C9.13601 39.9437 9.0914 40.1749 8.99304 40.3885C8.89469 40.6021 8.74511 40.7927 8.55539 40.9463C8.08201 41.2736 7.49555 41.4336 6.90369 41.3969H4V35.2055H6.84423C7.40566 35.1713 7.96263 35.3167 8.41995 35.6168C8.60363 35.7576 8.74908 35.9355 8.84482 36.1365C8.94055 36.3376 8.98396 36.5562 8.97162 36.7753C8.98831 37.1168 8.87115 37.4526 8.64128 37.722C8.42059 37.968 8.1156 38.1385 7.77579 38.2059C8.16101 38.2703 8.50873 38.4579 8.7569 38.7352ZM5.35109 37.8006H6.56674C6.84303 37.8193 7.11743 37.7463 7.33974 37.5949C7.43101 37.5192 7.50203 37.4252 7.54728 37.3203C7.59254 37.2154 7.61082 37.1024 7.60071 36.99C7.60929 36.878 7.59063 36.7657 7.54607 36.661C7.50151 36.5564 7.43217 36.4622 7.34304 36.3851C7.11408 36.2294 6.83115 36.1553 6.54692 36.1764H5.35109V37.8006ZM7.45866 40.175C7.55623 40.0974 7.63292 40.0003 7.68277 39.8912C7.73262 39.7821 7.75428 39.6639 7.74606 39.5458C7.7535 39.4264 7.73085 39.307 7.67988 39.1969C7.6289 39.0868 7.55095 38.9888 7.45205 38.9107C7.21421 38.7492 6.9217 38.6699 6.6262 38.6868H5.35109V40.3897H6.64272C6.93345 40.4051 7.22122 40.3293 7.45866 40.175Z" fill="#AFB1B8"/>
<path d="M14.5709 41.3969L12.9886 38.9772H12.394V41.3969H11.033V35.2055H13.6096C14.2591 35.164 14.9012 35.3524 15.4034 35.7318C15.7635 36.0678 15.9808 36.5106 16.0159 36.9803C16.051 37.45 15.9018 37.9158 15.595 38.2937C15.2771 38.6271 14.8428 38.8494 14.3661 38.9228L16.0508 41.3969H14.5709ZM12.394 38.1333H13.5072C14.2802 38.1333 14.6667 37.8208 14.6667 37.1957C14.6746 37.0681 14.6534 36.9403 14.6045 36.8205C14.5556 36.7008 14.48 36.5916 14.3826 36.5C14.1383 36.314 13.8237 36.2238 13.5072 36.249H12.3807L12.394 38.1333Z" fill="#AFB1B8"/>
<path d="M22.0102 40.1506H19.2981L18.8191 41.3968H17.392L19.8828 35.2749H21.4255L23.9063 41.3968H22.4793L22.0102 40.1506ZM21.6468 39.213L20.6558 36.5997L19.6648 39.213H21.6468Z" fill="#AFB1B8"/>
<path d="M31.3224 41.3969H29.9713L26.9421 37.1866V41.3969H25.5943V35.2054H26.9421L29.9713 39.44V35.2054H31.3224V41.3969Z" fill="#AFB1B8"/>
<path d="M39.0326 39.9149C38.7532 40.3823 38.3276 40.7626 37.8103 41.0068C37.2222 41.2788 36.5695 41.4128 35.9109 41.397H33.506V35.2055H35.9109C36.5684 35.1898 37.2202 35.3206 37.8103 35.5866C38.3275 35.8253 38.7536 36.2017 39.0326 36.6664C39.3107 37.17 39.4556 37.7263 39.4556 38.2906C39.4556 38.8549 39.3107 39.4113 39.0326 39.9149ZM37.4866 39.7667C37.8722 39.3554 38.0842 38.8312 38.0842 38.2891C38.0842 37.7471 37.8722 37.2229 37.4866 36.8116C37.0205 36.439 36.4127 36.2499 35.7952 36.2853H34.8571V40.293H35.7952C36.4127 40.3283 37.0205 40.1392 37.4866 39.7667Z" fill="#AFB1B8"/>
<path d="M22.8558 0.766724C22.8558 0.766724 40.2945 6.79486 39.9245 15.518V30.2722C39.9245 30.2722 22.4991 24.2411 22.8624 15.518L22.8558 0.766724Z" fill="#AFB1B8"/>
<path d="M55.4603 26.8181C58.7538 24.7428 62.5633 23.4574 66.5399 23.0796V18.4609C61.9579 20.0779 58.0709 23.0098 55.4603 26.8181Z" fill="#AFB1B8"/>
<path d="M53.4816 28.2095C56.1773 23.2396 60.8505 19.4046 66.54 17.4932V4.18469C66.54 4.18469 41.705 12.7717 42.2303 25.1939V46.2001C42.2303 46.2001 43.3369 45.816 45.0778 45.0961C45.0778 44.4247 45.0778 43.7472 45.1571 43.0666C45.6711 37.2996 48.6654 31.9556 53.4816 28.2095Z" fill="#AFB1B8"/>
<path d="M51.1197 36.0131C51.2502 34.5563 51.5413 33.1152 51.9885 31.712C48.9896 34.9471 47.1734 38.9614 46.7956 43.1906C46.7592 43.5899 46.7394 43.9891 46.7295 44.4005C48.14 43.7804 49.7818 43.0061 51.5062 42.0957C51.0662 40.0948 50.936 38.0472 51.1197 36.0131Z" fill="#AFB1B8"/>
<path d="M52.1075 36.0887C51.9421 37.929 52.0454 39.7813 52.4147 41.5966C59.1999 37.8793 66.8241 32.1355 66.5301 25.1939V24.589C61.6824 25.0856 57.1468 27.026 53.6204 30.112C52.7948 32.0244 52.2849 34.0387 52.1075 36.0887Z" fill="#AFB1B8"/>
</g>
<defs>
<filter id="filter0_d_1_823" x="0" y="0.766724" width="70.54" height="53.4335" filterUnits="userSpaceOnUse" color-interpolation-filters="sRGB">
<feFlood flood-opacity="0" result="BackgroundImageFix"/>
<feColorMatrix in="SourceAlpha" type="matrix" values="0 0 0 0 0 0 0 0 0 0 0 0 0 0 0 0 0 0 127 0" result="hardAlpha"/>
<feOffset dy="4"/>
<feGaussianBlur stdDeviation="2"/>
<feComposite in2="hardAlpha" operator="out"/>
<feColorMatrix type="matrix" values="0 0 0 0 0 0 0 0 0 0 0 0 0 0 0 0 0 0 0.25 0"/>
<feBlend mode="normal" in2="BackgroundImageFix" result="effect1_dropShadow_1_823"/>
<feBlend mode="normal" in="SourceGraphic" in2="effect1_dropShadow_1_823" result="shape"/>
</filter>
</defs>
</svg>
